<svg xmlns="http://www.w3.org/2000/svg" viewBox="0 0 698.34 698.34"><defs><style>.cls-1{fill:#601d46;}.cls-2{fill:none;stroke:#fff;stroke-miterlimit:10;stroke-width:3px;}.cls-3{font-size:59px;font-family:SSNicksonTwo, SS Nickson Two;letter-spacing:0.1em;}.cls-16,.cls-3,.cls-4,.cls-9{fill:#fff;}.cls-4{font-size:99px;font-family:SSNicksonFour, SS Nickson Four;letter-spacing:-0.04em;}.cls-5{letter-spacing:-0.07em;}.cls-6{letter-spacing:0em;}.cls-7{letter-spacing:0.02em;}.cls-8{letter-spacing:-0.02em;}.cls-9{font-size:96px;font-family:SSNicksonOne, SS Nickson One;}.cls-10{letter-spacing:0.09em;}.cls-11{letter-spacing:0.08em;}.cls-12{letter-spacing:0.09em;}.cls-13{letter-spacing:0.08em;}.cls-14{letter-spacing:0.09em;}.cls-15{letter-spacing:0.1em;}</style></defs><title>favor-crest_1</title><g id="Layer_2" data-name="Layer 2"><g id="brand_and_fav_img" data-name="brand and fav img"><path class="cls-1" d="M320.69,26c16,9.33,42.07,9.33,58,0L394,17.05c16-9.34,37.85-4.67,48.65,10.39L453,41.82c10.8,15.06,34.66,25.73,53,23.72l17.55-1.91c18.35-2,36.47,11.21,40.24,29.38l3.62,17.37c3.76,18.15,21.24,37.66,38.83,43.34L623,159.13c17.58,5.67,28.77,25.15,24.88,43.3l-3.74,17.34c-3.9,18.14,4.17,43.1,17.93,55.46l13.17,11.82c13.76,12.37,16.1,34.75,5.19,49.71l-10.42,14.33c-10.91,15-13.64,41.07-6.07,58l7.24,16.19c7.57,16.92.65,38.32-15.37,47.54l-15.32,8.82c-16,9.21-29.09,31.94-29,50.5l.06,17.74c.06,18.56-14.92,35.26-33.29,37.15l-17.56,1.8c-18.37,1.86-39.5,17.29-47,34.28l-7.12,16.22c-7.45,17-27.9,26.13-45.44,20.33l-16.78-5.54c-17.54-5.79-43.08-.34-56.76,12.12l-13.08,11.92c-13.68,12.47-36.06,12.47-49.75,0l-13.07-11.92c-13.68-12.46-39.23-17.91-56.77-12.12l-16.78,5.54c-17.54,5.8-38-3.35-45.44-20.33l-7.12-16.22c-7.45-17-28.58-32.42-47-34.28L121.13,587c-18.37-1.89-33.34-18.59-33.28-37.15l.06-17.74c.06-18.56-13-41.29-29-50.5l-15.32-8.82c-16-9.22-22.94-30.62-15.37-47.54l7.24-16.19c7.57-16.92,4.84-43-6.07-58L18.94,336.76c-10.9-15-8.56-37.34,5.2-49.71L37.3,275.23c13.77-12.36,21.84-37.32,17.94-55.46l-3.73-17.34c-3.9-18.15,7.29-37.63,24.87-43.3l16.81-5.41c17.58-5.68,35.06-25.19,38.83-43.34L135.64,93c3.77-18.17,21.88-31.39,40.24-29.38l17.55,1.91c18.36,2,42.21-8.66,53-23.72l10.33-14.38c10.8-15.06,32.69-19.73,48.65-10.39Z"/><circle class="cls-2" cx="349.84" cy="349.74" r="293"/><text class="cls-3" transform="translate(299.13 200.15)">THE</text><text class="cls-4" transform="translate(167.34 325.63)">F<tspan class="cls-5" x="62.36" y="0">A</tspan><tspan class="cls-6" x="130.75" y="0">V</tspan><tspan class="cls-7" x="207.76" y="0">O</tspan><tspan class="cls-8" x="290.71" y="0">R</tspan></text><text class="cls-9" transform="translate(167.69 413.83)"><tspan class="cls-10">s</tspan><tspan class="cls-11" x="40.3" y="0">o</tspan><tspan class="cls-12" x="87.51" y="0">l</tspan><tspan class="cls-13" x="125.13" y="0">ution</tspan><tspan x="333.25" y="0">s</tspan></text><text class="cls-3" transform="translate(215.2 508.15)">net<tspan class="cls-14" x="106.91" y="0">w</tspan><tspan class="cls-15" x="158.47" y="0">ork</tspan></text><circle class="cls-2" cx="349.84" cy="349.74" r="250"/><path class="cls-1" d="M413.18,3c12,0,24.06,5.54,31.28,15.59L455,33.34C465.22,47.51,486.69,57.9,504.7,57.9a45.22,45.22,0,0,0,4.7-.24l18-2a34.68,34.68,0,0,1,3.8-.2c17.46,0,33.85,13,37.46,30.32l3.71,17.81c3.86,18.62,21.78,38.62,39.81,44.44l17.23,5.55c18,5.82,29.5,25.79,25.51,44.39l-3.83,17.79c-4,18.59,4.27,44.18,18.39,56.86L683,284.77c14.12,12.68,16.51,35.62,5.33,51l-10.69,14.69c-11.18,15.36-14,42.11-6.22,59.46l7.42,16.6c7.76,17.35.67,39.29-15.76,48.74l-15.7,9C630.92,493.71,617.52,517,617.59,536l.06,18.19c.07,19-15.29,36.16-34.13,38.09l-18,1.84c-18.83,1.92-40.5,17.73-48.14,35.15l-7.3,16.63c-6.08,13.86-20.61,22.63-35.35,22.63a35.83,35.83,0,0,1-11.24-1.78l-17.2-5.69a51.55,51.55,0,0,0-16-2.37c-15.26,0-31.94,5.49-42.16,14.81l-13.41,12.21a38.7,38.7,0,0,1-51,0l-13.41-12.21c-10.22-9.32-26.9-14.81-42.16-14.81a51.55,51.55,0,0,0-16,2.37l-17.2,5.69a35.83,35.83,0,0,1-11.24,1.78c-14.74,0-29.27-8.77-35.35-22.63L181,629.31c-7.64-17.42-29.3-33.23-48.13-35.15l-18-1.84C96,590.39,80.63,573.26,80.69,554.23L80.75,536c.07-19-13.32-42.33-29.75-51.78l-15.71-9c-16.42-9.45-23.52-31.39-15.76-48.74L27,409.88c7.77-17.35,5-44.1-6.22-59.46L10,335.73c-11.17-15.34-8.78-38.28,5.33-51l13.5-12.12C43,260,51.26,234.38,47.25,215.79L43.43,198c-4-18.6,7.47-38.57,25.5-44.39l17.24-5.55c18-5.82,35.94-25.82,39.81-44.44l3.71-17.81c3.6-17.36,20-30.32,37.45-30.32a35,35,0,0,1,3.81.2l18,2a45.36,45.36,0,0,0,4.7.24c18,0,39.48-10.39,49.66-24.56l10.59-14.75C261.1,8.54,273.13,3,285.16,3a36.78,36.78,0,0,1,18.61,4.93l15.65,9.15c8.18,4.78,19,7.18,29.75,7.18s21.57-2.4,29.75-7.18l15.65-9.15A36.78,36.78,0,0,1,413.18,3m0-3a39.87,39.87,0,0,0-20.12,5.34l-15.65,9.15c-7.46,4.36-17.49,6.77-28.24,6.77s-20.77-2.41-28.23-6.77L305.29,5.34A39.91,39.91,0,0,0,285.16,0a41.39,41.39,0,0,0-33.71,16.84L240.86,31.59C231.32,44.88,211,54.9,193.64,54.9a38.7,38.7,0,0,1-4.37-.23l-18-2a37.83,37.83,0,0,0-4.13-.22c-19.16,0-36.52,14.06-40.39,32.72L123,103c-1.76,8.5-6.7,17.6-13.89,25.63s-15.68,13.91-23.9,16.57L68,150.76C48.52,157,36.17,178.52,40.5,198.63l3.82,17.79c1.83,8.48,1,18.81-2.32,29.09s-8.7,19.12-15.14,24.9L13.37,282.53c-15.26,13.72-17.84,38.38-5.75,55l10.69,14.69c5.1,7,8.53,16.78,9.65,27.53s-.2,21-3.75,28.94l-7.42,16.59C8.4,444,16,467.59,33.79,477.82l15.71,9c7.5,4.31,14.58,11.84,20,21.19s8.32,19.29,8.29,28l-.06,18.19c-.07,20.56,16.45,39,36.82,41.08l18,1.84c8.59.88,18.11,4.85,26.8,11.2s15.41,14.22,18.9,22.17l7.3,16.63c6.41,14.62,21.72,24.43,38.1,24.43a38.63,38.63,0,0,0,12.18-1.94L253,664a48.31,48.31,0,0,1,15.1-2.22c15,0,30.79,5.5,40.14,14L321.65,688a41.7,41.7,0,0,0,55,0l13.41-12.22c9.35-8.52,25.11-14,40.14-14a48.31,48.31,0,0,1,15.1,2.22l17.2,5.68a38.63,38.63,0,0,0,12.18,1.94c16.38,0,31.69-9.81,38.1-24.43l7.3-16.63c3.49-7.94,10.2-15.82,18.9-22.17s18.21-10.32,26.8-11.2l18-1.84c20.38-2.09,36.9-20.52,36.82-41.08L620.59,536c0-8.69,2.91-18.62,8.29-28s12.47-16.88,20-21.19l15.71-9.05c17.76-10.21,25.39-33.79,17-52.56l-7.42-16.59c-3.54-7.92-4.87-18.2-3.75-28.94s4.56-20.53,9.66-27.53l10.69-14.69c12.09-16.59,9.51-41.25-5.75-55l-13.5-12.12c-6.44-5.78-11.81-14.62-15.14-24.9s-4.15-20.61-2.32-29.09l3.83-17.78c4.32-20.12-8-41.6-27.52-47.88l-17.23-5.55c-8.22-2.66-16.71-8.54-23.91-16.57S577.06,111.51,575.3,103L571.59,85.2c-3.87-18.65-21.24-32.71-40.39-32.71a37.83,37.83,0,0,0-4.13.22l-18,2a39,39,0,0,1-4.38.23c-17.38,0-37.68-10-47.22-23.31L446.89,16.84A41.34,41.34,0,0,0,413.18,0Z"/><line class="cls-2" x1="531.34" y1="237.24" x2="167.34" y2="237.24"/><line class="cls-2" x1="532.34" y1="432.74" x2="168.34" y2="432.74"/><circle class="cls-16" cx="456.34" cy="185.24" r="4"/><circle class="cls-16" cx="350.34" cy="555.24" r="4"/><circle class="cls-16" cx="243.34" cy="185.24" r="4"/></g></g></svg>