<svg version="1.1" viewBox="0.0 0.0 1024.0 768.0" fill="none" stroke="none" stroke-linecap="square" stroke-miterlimit="10" xmlns:xlink="http://www.w3.org/1999/xlink" xmlns="http://www.w3.org/2000/svg"><clipPath id="p.0"><path d="m0 0l1024.0 0l0 768.0l-1024.0 0l0 -768.0z" clip-rule="nonzero"/></clipPath><g clip-path="url(#p.0)"><path fill="#000000" fill-opacity="0.0" d="m0 0l1024.0 0l0 768.0l-1024.0 0z" fill-rule="evenodd"/><path fill="#b4a7d6" d="m29.656168 244.91864l0 0c0 -120.58073 97.74999 -218.33072 218.3307 -218.33072l0 0c57.904907 0 113.43817 23.002634 154.38312 63.94758c40.944946 40.944946 63.9476 96.478226 63.9476 154.38313l0 0c0 120.58072 -97.75 218.33069 -218.33072 218.33069l0 0c-120.58072 0 -218.3307 -97.74997 -218.3307 -218.33069z" fill-rule="evenodd"/><path stroke="#674ea7" stroke-width="3.0" stroke-linejoin="round" stroke-linecap="butt" d="m29.656168 244.91864l0 0c0 -120.58073 97.74999 -218.33072 218.3307 -218.33072l0 0c57.904907 0 113.43817 23.002634 154.38312 63.94758c40.944946 40.944946 63.9476 96.478226 63.9476 154.38313l0 0c0 120.58072 -97.75 218.33069 -218.33072 218.33069l0 0c-120.58072 0 -218.3307 -97.74997 -218.3307 -218.33069z" fill-rule="evenodd"/><path fill="#ffffff" d="m120.67191 376.33334l0 0c0 -10.732605 8.700478 -19.433075 19.433067 -19.433075l0 0c5.1539764 0 10.096848 2.0473938 13.741257 5.691803c3.6444092 3.6444092 5.691818 8.58728 5.691818 13.741272l0 0c0 10.732574 -8.700485 19.433075 -19.433075 19.433075l0 0c-10.73259 0 -19.433067 -8.7005005 -19.433067 -19.433075z" fill-rule="evenodd"/><path stroke="#674ea7" stroke-width="3.0" stroke-linejoin="round" stroke-linecap="butt" d="m120.67191 376.33334l0 0c0 -10.732605 8.700478 -19.433075 19.433067 -19.433075l0 0c5.1539764 0 10.096848 2.0473938 13.741257 5.691803c3.6444092 3.6444092 5.691818 8.58728 5.691818 13.741272l0 0c0 10.732574 -8.700485 19.433075 -19.433075 19.433075l0 0c-10.73259 0 -19.433067 -8.7005005 -19.433067 -19.433075z" fill-rule="evenodd"/><path fill="#ffffff" d="m174.87138 364.56693l0 0c0 -10.732574 8.700485 -19.433075 19.433075 -19.433075l0 0c5.1539764 0 10.096848 2.0474243 13.741257 5.6918335c3.6444092 3.6444092 5.691818 8.58728 5.691818 13.741241l0 0c0 10.732605 -8.700485 19.433075 -19.433075 19.433075l0 0c-10.73259 0 -19.433075 -8.70047 -19.433075 -19.433075z" fill-rule="evenodd"/><path stroke="#674ea7" stroke-width="3.0" stroke-linejoin="round" stroke-linecap="butt" d="m174.87138 364.56693l0 0c0 -10.732574 8.700485 -19.433075 19.433075 -19.433075l0 0c5.1539764 0 10.096848 2.0474243 13.741257 5.6918335c3.6444092 3.6444092 5.691818 8.58728 5.691818 13.741241l0 0c0 10.732605 -8.700485 19.433075 -19.433075 19.433075l0 0c-10.73259 0 -19.433075 -8.70047 -19.433075 -19.433075z" fill-rule="evenodd"/><path fill="#ffffff" d="m196.34645 423.87927l0 0c0 -10.732605 8.700485 -19.433075 19.433075 -19.433075l0 0c5.1539764 0 10.096848 2.0473938 13.741257 5.691803c3.6444092 3.6444092 5.691818 8.58728 5.691818 13.741272l0 0c0 10.732574 -8.700485 19.433075 -19.433075 19.433075l0 0c-10.73259 0 -19.433075 -8.7005005 -19.433075 -19.433075z" fill-rule="evenodd"/><path stroke="#674ea7" stroke-width="3.0" stroke-linejoin="round" stroke-linecap="butt" d="m196.34645 423.87927l0 0c0 -10.732605 8.700485 -19.433075 19.433075 -19.433075l0 0c5.1539764 0 10.096848 2.0473938 13.741257 5.691803c3.6444092 3.6444092 5.691818 8.58728 5.691818 13.741272l0 0c0 10.732574 -8.700485 19.433075 -19.433075 19.433075l0 0c-10.73259 0 -19.433075 -8.7005005 -19.433075 -19.433075z" fill-rule="evenodd"/><path fill="#ffffff" d="m286.34384 376.33334l0 0c0 -10.732605 8.70047 -19.433075 19.433075 -19.433075l0 0c5.153961 0 10.096832 2.0473938 13.741241 5.691803c3.6444092 3.6444092 5.691803 8.58728 5.691803 13.741272l0 0c0 10.732574 -8.70047 19.433075 -19.433044 19.433075l0 0c-10.732605 0 -19.433075 -8.7005005 -19.433075 -19.433075z" fill-rule="evenodd"/><path stroke="#674ea7" stroke-width="3.0" stroke-linejoin="round" stroke-linecap="butt" d="m286.34384 376.33334l0 0c0 -10.732605 8.70047 -19.433075 19.433075 -19.433075l0 0c5.153961 0 10.096832 2.0473938 13.741241 5.691803c3.6444092 3.6444092 5.691803 8.58728 5.691803 13.741272l0 0c0 10.732574 -8.70047 19.433075 -19.433044 19.433075l0 0c-10.732605 0 -19.433075 -8.7005005 -19.433075 -19.433075z" fill-rule="evenodd"/><path fill="#d5a6bd" d="m82.845146 209.63518l0 0c0 -31.623749 25.6361 -57.259842 57.259834 -57.259842l0 0c15.186264 0 29.750519 6.032715 40.48883 16.771011c10.7382965 10.7382965 16.771011 25.302567 16.771011 40.48883l0 0c0 31.623734 -25.636093 57.259842 -57.259842 57.259842l0 0c-31.623734 0 -57.259834 -25.636108 -57.259834 -57.259842z" fill-rule="evenodd"/><path stroke="#a64d79" stroke-width="3.0" stroke-linejoin="round" stroke-linecap="butt" d="m82.845146 209.63518l0 0c0 -31.623749 25.6361 -57.259842 57.259834 -57.259842l0 0c15.186264 0 29.750519 6.032715 40.48883 16.771011c10.7382965 10.7382965 16.771011 25.302567 16.771011 40.48883l0 0c0 31.623734 -25.636093 57.259842 -57.259842 57.259842l0 0c-31.623734 0 -57.259834 -25.636108 -57.259834 -57.259842z" fill-rule="evenodd"/><path fill="#d5a6bd" d="m206.57217 267.42783l0 0c0 -31.623749 25.636108 -57.259842 57.259857 -57.259842l0 0c15.186249 0 29.750519 6.032715 40.4888 16.771011c10.738312 10.738312 16.771027 25.302567 16.771027 40.48883l0 0c0 31.623718 -25.636108 57.259827 -57.259827 57.259827l0 0c-31.623749 0 -57.259857 -25.636108 -57.259857 -57.259827z" fill-rule="evenodd"/><path stroke="#a64d79" stroke-width="3.0" stroke-linejoin="round" stroke-linecap="butt" d="m206.57217 267.42783l0 0c0 -31.623749 25.636108 -57.259842 57.259857 -57.259842l0 0c15.186249 0 29.750519 6.032715 40.4888 16.771011c10.738312 10.738312 16.771027 25.302567 16.771027 40.48883l0 0c0 31.623718 -25.636108 57.259827 -57.259827 57.259827l0 0c-31.623749 0 -57.259857 -25.636108 -57.259857 -57.259827z" fill-rule="evenodd"/><path fill="#d5a6bd" d="m321.09186 182.54855l0 0c0 -31.623734 25.636108 -57.259842 57.259857 -57.259842l0 0c15.186249 0 29.750519 6.032715 40.4888 16.771027c10.738312 10.7382965 16.771027 25.302567 16.771027 40.488815l0 0c0 31.623734 -25.636108 57.259842 -57.259827 57.259842l0 0c-31.623749 0 -57.259857 -25.636108 -57.259857 -57.259842z" fill-rule="evenodd"/><path stroke="#a64d79" stroke-width="3.0" stroke-linejoin="round" stroke-linecap="butt" d="m321.09186 182.54855l0 0c0 -31.623734 25.636108 -57.259842 57.259857 -57.259842l0 0c15.186249 0 29.750519 6.032715 40.4888 16.771027c10.738312 10.7382965 16.771027 25.302567 16.771027 40.488815l0 0c0 31.623734 -25.636108 57.259842 -57.259827 57.259842l0 0c-31.623749 0 -57.259857 -25.636108 -57.259857 -57.259842z" fill-rule="evenodd"/><path fill="#ffffff" d="m104.314964 190.73491l0 0c0 -10.73259 8.700478 -19.433075 19.433067 -19.433075l0 0c5.1539764 0 10.096848 2.047409 13.741257 5.691818c3.6444092 3.6444092 5.691818 8.58728 5.691818 13.741257l0 0c0 10.73259 -8.700485 19.433075 -19.433075 19.433075l0 0c-10.73259 0 -19.433067 -8.700485 -19.433067 -19.433075z" fill-rule="evenodd"/><path stroke="#674ea7" stroke-width="3.0" stroke-linejoin="round" stroke-linecap="butt" d="m104.314964 190.73491l0 0c0 -10.73259 8.700478 -19.433075 19.433067 -19.433075l0 0c5.1539764 0 10.096848 2.047409 13.741257 5.691818c3.6444092 3.6444092 5.691818 8.58728 5.691818 13.741257l0 0c0 10.73259 -8.700485 19.433075 -19.433075 19.433075l0 0c-10.73259 0 -19.433067 -8.700485 -19.433067 -19.433075z" fill-rule="evenodd"/><path fill="#ffffff" d="m125.79002 237.77428l0 0c0 -10.73259 8.700485 -19.433075 19.433075 -19.433075l0 0c5.1539764 0 10.096848 2.047409 13.741257 5.691818c3.6444092 3.6444092 5.691818 8.58728 5.691818 13.741257l0 0c0 10.73259 -8.700485 19.43306 -19.433075 19.43306l0 0c-10.73259 0 -19.433075 -8.70047 -19.433075 -19.43306z" fill-rule="evenodd"/><path stroke="#674ea7" stroke-width="3.0" stroke-linejoin="round" stroke-linecap="butt" d="m125.79002 237.77428l0 0c0 -10.73259 8.700485 -19.433075 19.433075 -19.433075l0 0c5.1539764 0 10.096848 2.047409 13.741257 5.691818c3.6444092 3.6444092 5.691818 8.58728 5.691818 13.741257l0 0c0 10.73259 -8.700485 19.43306 -19.433075 19.43306l0 0c-10.73259 0 -19.433075 -8.70047 -19.433075 -19.43306z" fill-rule="evenodd"/><path fill="#ffffff" d="m149.30971 198.90814l0 0c0 -10.73259 8.700485 -19.433075 19.433075 -19.433075l0 0c5.1539764 0 10.096848 2.047409 13.741257 5.691818c3.6444092 3.6444092 5.691818 8.58728 5.691818 13.741257l0 0c0 10.73259 -8.700485 19.43306 -19.433075 19.43306l0 0c-10.73259 0 -19.433075 -8.70047 -19.433075 -19.43306z" fill-rule="evenodd"/><path stroke="#674ea7" stroke-width="3.0" stroke-linejoin="round" stroke-linecap="butt" d="m149.30971 198.90814l0 0c0 -10.73259 8.700485 -19.433075 19.433075 -19.433075l0 0c5.1539764 0 10.096848 2.047409 13.741257 5.691818c3.6444092 3.6444092 5.691818 8.58728 5.691818 13.741257l0 0c0 10.73259 -8.700485 19.43306 -19.433075 19.43306l0 0c-10.73259 0 -19.433075 -8.70047 -19.433075 -19.43306z" fill-rule="evenodd"/><path fill="#ffffff" d="m235.2126 244.91864l0 0c0 -10.73259 8.700485 -19.433075 19.433075 -19.433075l0 0c5.1539764 0 10.096848 2.047409 13.741257 5.691818c3.6444092 3.6444092 5.691803 8.58728 5.691803 13.741257l0 0c0 10.73259 -8.70047 19.433075 -19.43306 19.433075l0 0c-10.73259 0 -19.433075 -8.700485 -19.433075 -19.433075z" fill-rule="evenodd"/><path stroke="#674ea7" stroke-width="3.0" stroke-linejoin="round" stroke-linecap="butt" d="m235.2126 244.91864l0 0c0 -10.73259 8.700485 -19.433075 19.433075 -19.433075l0 0c5.1539764 0 10.096848 2.047409 13.741257 5.691818c3.6444092 3.6444092 5.691803 8.58728 5.691803 13.741257l0 0c0 10.73259 -8.70047 19.433075 -19.43306 19.433075l0 0c-10.73259 0 -19.433075 -8.700485 -19.433075 -19.433075z" fill-rule="evenodd"/><path fill="#ffffff" d="m228.5538 291.96063l0 0c0 -10.732605 8.700485 -19.433075 19.433075 -19.433075l0 0c5.1539764 0 10.096863 2.0473938 13.741241 5.691803c3.6444092 3.6444092 5.6918335 8.587311 5.6918335 13.741272l0 0c0 10.732574 -8.7005005 19.433075 -19.433075 19.433075l0 0c-10.73259 0 -19.433075 -8.7005005 -19.433075 -19.433075z" fill-rule="evenodd"/><path stroke="#674ea7" stroke-width="3.0" stroke-linejoin="round" stroke-linecap="butt" d="m228.5538 291.96063l0 0c0 -10.732605 8.700485 -19.433075 19.433075 -19.433075l0 0c5.1539764 0 10.096863 2.0473938 13.741241 5.691803c3.6444092 3.6444092 5.6918335 8.587311 5.6918335 13.741272l0 0c0 10.732574 -8.7005005 19.433075 -19.433075 19.433075l0 0c-10.73259 0 -19.433075 -8.7005005 -19.433075 -19.433075z" fill-rule="evenodd"/><path fill="#ffffff" d="m274.07874 276.6404l0 0c0 -10.732574 8.7005005 -19.433075 19.433075 -19.433075l0 0c5.153961 0 10.096863 2.0474243 13.741272 5.6918335c3.6443787 3.6444092 5.691803 8.58728 5.691803 13.741241l0 0c0 10.732605 -8.7005005 19.433075 -19.433075 19.433075l0 0c-10.732574 0 -19.433075 -8.70047 -19.433075 -19.433075z" fill-rule="evenodd"/><path stroke="#674ea7" stroke-width="3.0" stroke-linejoin="round" stroke-linecap="butt" d="m274.07874 276.6404l0 0c0 -10.732574 8.7005005 -19.433075 19.433075 -19.433075l0 0c5.153961 0 10.096863 2.0474243 13.741272 5.6918335c3.6443787 3.6444092 5.691803 8.58728 5.691803 13.741241l0 0c0 10.732605 -8.7005005 19.433075 -19.433075 19.433075l0 0c-10.732574 0 -19.433075 -8.70047 -19.433075 -19.433075z" fill-rule="evenodd"/><path fill="#ffffff" d="m336.45898 162.08727l0 0c0 -10.73259 8.7005005 -19.433075 19.433075 -19.433075l0 0c5.1539917 0 10.096863 2.047409 13.741272 5.691818c3.6444092 3.6444092 5.691803 8.587296 5.691803 13.741257l0 0c0 10.73259 -8.70047 19.433075 -19.433075 19.433075l0 0c-10.732574 0 -19.433075 -8.700485 -19.433075 -19.433075z" fill-rule="evenodd"/><path stroke="#674ea7" stroke-width="3.0" stroke-linejoin="round" stroke-linecap="butt" d="m336.45898 162.08727l0 0c0 -10.73259 8.7005005 -19.433075 19.433075 -19.433075l0 0c5.1539917 0 10.096863 2.047409 13.741272 5.691818c3.6444092 3.6444092 5.691803 8.587296 5.691803 13.741257l0 0c0 10.73259 -8.70047 19.433075 -19.433075 19.433075l0 0c-10.732574 0 -19.433075 -8.700485 -19.433075 -19.433075z" fill-rule="evenodd"/><path fill="#ffffff" d="m339.4882 206.05249l0 0c0 -10.73259 8.70047 -19.433075 19.433075 -19.433075l0 0c5.153961 0 10.096832 2.047409 13.741241 5.691818c3.6444092 3.6444092 5.6918335 8.587296 5.6918335 13.741257l0 0c0 10.73259 -8.7005005 19.433075 -19.433075 19.433075l0 0c-10.732605 0 -19.433075 -8.700485 -19.433075 -19.433075z" fill-rule="evenodd"/><path stroke="#674ea7" stroke-width="3.0" stroke-linejoin="round" stroke-linecap="butt" d="m339.4882 206.05249l0 0c0 -10.73259 8.70047 -19.433075 19.433075 -19.433075l0 0c5.153961 0 10.096832 2.047409 13.741241 5.691818c3.6444092 3.6444092 5.6918335 8.587296 5.6918335 13.741257l0 0c0 10.73259 -8.7005005 19.433075 -19.433075 19.433075l0 0c-10.732605 0 -19.433075 -8.700485 -19.433075 -19.433075z" fill-rule="evenodd"/><path fill="#ffffff" d="m382.43765 201.97604l0 0c0 -10.73259 8.7005005 -19.433075 19.433075 -19.433075l0 0c5.1539917 0 10.096863 2.047409 13.741272 5.691818c3.6444092 3.6444092 5.691803 8.587296 5.691803 13.741257l0 0c0 10.73259 -8.70047 19.433075 -19.433075 19.433075l0 0c-10.732574 0 -19.433075 -8.700485 -19.433075 -19.433075z" fill-rule="evenodd"/><path stroke="#674ea7" stroke-width="3.0" stroke-linejoin="round" stroke-linecap="butt" d="m382.43765 201.97604l0 0c0 -10.73259 8.7005005 -19.433075 19.433075 -19.433075l0 0c5.1539917 0 10.096863 2.047409 13.741272 5.691818c3.6444092 3.6444092 5.691803 8.587296 5.691803 13.741257l0 0c0 10.73259 -8.70047 19.433075 -19.433075 19.433075l0 0c-10.732574 0 -19.433075 -8.700485 -19.433075 -19.433075z" fill-rule="evenodd"/><path fill="#ffffff" d="m383.4603 157.15518l0 0c0 -10.73259 8.7005005 -19.433075 19.433075 -19.433075l0 0c5.153961 0 10.096863 2.047409 13.741272 5.691818c3.6444092 3.6444092 5.691803 8.58728 5.691803 13.741257l0 0c0 10.73259 -8.70047 19.43306 -19.433075 19.43306l0 0c-10.732574 0 -19.433075 -8.70047 -19.433075 -19.43306z" fill-rule="evenodd"/><path stroke="#674ea7" stroke-width="3.0" stroke-linejoin="round" stroke-linecap="butt" d="m383.4603 157.15518l0 0c0 -10.73259 8.7005005 -19.433075 19.433075 -19.433075l0 0c5.153961 0 10.096863 2.047409 13.741272 5.691818c3.6444092 3.6444092 5.691803 8.58728 5.691803 13.741257l0 0c0 10.73259 -8.70047 19.43306 -19.433075 19.43306l0 0c-10.732574 0 -19.433075 -8.70047 -19.433075 -19.43306z" fill-rule="evenodd"/><path fill="#a4c2f4" d="m192.2546 104.32021l0 0c0 -33.32843 27.018036 -60.34646 60.34645 -60.34646l0 0c16.004883 0 31.354248 6.35791 42.671387 17.675068c11.317169 11.317158 17.67508 26.666515 17.67508 42.67139l0 0c0 33.328423 -27.018036 60.34646 -60.346466 60.34646l0 0c-33.328415 0 -60.34645 -27.018036 -60.34645 -60.34646z" fill-rule="evenodd"/><path stroke="#3c78d8" stroke-width="3.0" stroke-linejoin="round" stroke-linecap="butt" d="m192.2546 104.32021l0 0c0 -33.32843 27.018036 -60.34646 60.34645 -60.34646l0 0c16.004883 0 31.354248 6.35791 42.671387 17.675068c11.317169 11.317158 17.67508 26.666515 17.67508 42.67139l0 0c0 33.328423 -27.018036 60.34646 -60.346466 60.34646l0 0c-33.328415 0 -60.34645 -27.018036 -60.34645 -60.34646z" fill-rule="evenodd"/><path fill="#d5a6bd" d="m206.57217 90.509186l0 0c0 -10.73259 8.700485 -19.433067 19.433075 -19.433067l0 0c5.1539764 0 10.096848 2.0474014 13.741257 5.6918106c3.6444092 3.6444092 5.691818 8.587288 5.691818 13.741257l0 0c0 10.73259 -8.700485 19.433075 -19.433075 19.433075l0 0c-10.73259 0 -19.433075 -8.700485 -19.433075 -19.433075z" fill-rule="evenodd"/><path stroke="#a64d79" stroke-width="3.0" stroke-linejoin="round" stroke-linecap="butt" d="m206.57217 90.509186l0 0c0 -10.73259 8.700485 -19.433067 19.433075 -19.433067l0 0c5.1539764 0 10.096848 2.0474014 13.741257 5.6918106c3.6444092 3.6444092 5.691818 8.587288 5.691818 13.741257l0 0c0 10.73259 -8.700485 19.433075 -19.433075 19.433075l0 0c-10.73259 0 -19.433075 -8.700485 -19.433075 -19.433075z" fill-rule="evenodd"/><path fill="#d5a6bd" d="m233.16798 139.5958l0 0c0 -10.73259 8.70047 -19.433067 19.43306 -19.433067l0 0c5.1539917 0 10.096863 2.047409 13.741272 5.691818c3.6444092 3.6444016 5.691803 8.587288 5.691803 13.741249l0 0c0 10.73259 -8.70047 19.433075 -19.433075 19.433075l0 0c-10.73259 0 -19.43306 -8.700485 -19.43306 -19.433075z" fill-rule="evenodd"/><path stroke="#a64d79" stroke-width="3.0" stroke-linejoin="round" stroke-linecap="butt" d="m233.16798 139.5958l0 0c0 -10.73259 8.70047 -19.433067 19.43306 -19.433067l0 0c5.1539917 0 10.096863 2.047409 13.741272 5.691818c3.6444092 3.6444016 5.691803 8.587288 5.691803 13.741249l0 0c0 10.73259 -8.70047 19.433075 -19.433075 19.433075l0 0c-10.73259 0 -19.43306 -8.700485 -19.43306 -19.433075z" fill-rule="evenodd"/><path fill="#d5a6bd" d="m260.77954 90.509186l0 0c0 -10.73259 8.70047 -19.433067 19.433044 -19.433067l0 0c5.1539917 0 10.096863 2.0474014 13.741272 5.6918106c3.6444092 3.6444092 5.691803 8.587288 5.691803 13.741257l0 0c0 10.73259 -8.70047 19.433075 -19.433075 19.433075l0 0c-10.732574 0 -19.433044 -8.700485 -19.433044 -19.433075z" fill-rule="evenodd"/><path stroke="#a64d79" stroke-width="3.0" stroke-linejoin="round" stroke-linecap="butt" d="m260.77954 90.509186l0 0c0 -10.73259 8.70047 -19.433067 19.433044 -19.433067l0 0c5.1539917 0 10.096863 2.0474014 13.741272 5.6918106c3.6444092 3.6444092 5.691803 8.587288 5.691803 13.741257l0 0c0 10.73259 -8.70047 19.433075 -19.433075 19.433075l0 0c-10.732574 0 -19.433044 -8.700485 -19.433044 -19.433075z" fill-rule="evenodd"/><path fill="#000000" fill-opacity="0.0" d="m342.14282 148.34492l-48.188965 -44.094482" fill-rule="evenodd"/><path stroke="#a64d79" stroke-width="3.0" stroke-linejoin="round" stroke-linecap="butt" d="m342.14282 148.34492l-48.188965 -44.094482" fill-rule="evenodd"/><path fill="#000000" fill-opacity="0.0" d="m263.83203 210.16798l-11.24411 -51.149612" fill-rule="evenodd"/><path stroke="#a64d79" stroke-width="3.0" stroke-linejoin="round" stroke-linecap="butt" d="m263.83203 210.16798l-11.24411 -51.149612" fill-rule="evenodd"/><path fill="#000000" fill-opacity="0.0" d="m140.10498 152.37534l66.456696 -61.858276" fill-rule="evenodd"/><path stroke="#a64d79" stroke-width="3.0" stroke-linejoin="round" stroke-linecap="butt" d="m140.10498 152.37534l66.456696 -61.858276" fill-rule="evenodd"/><path fill="#ffffff" d="m230.6076 376.33334l0 0c0 -10.732605 8.700485 -19.433075 19.433075 -19.433075l0 0c5.1539764 0 10.096863 2.0473938 13.741272 5.691803c3.6444092 3.6444092 5.691803 8.58728 5.691803 13.741272l0 0c0 10.732574 -8.70047 19.433075 -19.433075 19.433075l0 0c-10.73259 0 -19.433075 -8.7005005 -19.433075 -19.433075z" fill-rule="evenodd"/><path stroke="#674ea7" stroke-width="3.0" stroke-linejoin="round" stroke-linecap="butt" d="m230.6076 376.33334l0 0c0 -10.732605 8.700485 -19.433075 19.433075 -19.433075l0 0c5.1539764 0 10.096863 2.0473938 13.741272 5.691803c3.6444092 3.6444092 5.691803 8.58728 5.691803 13.741272l0 0c0 10.732574 -8.70047 19.433075 -19.433075 19.433075l0 0c-10.73259 0 -19.433075 -8.7005005 -19.433075 -19.433075z" fill-rule="evenodd"/><path fill="#ffffff" d="m267.41864 429.5118l0 0c0 -10.732574 8.70047 -19.433075 19.433075 -19.433075l0 0c5.153961 0 10.096832 2.0474243 13.741241 5.6918335c3.6444092 3.6443787 5.6918335 8.58728 5.6918335 13.741241l0 0c0 10.732574 -8.7005005 19.433075 -19.433075 19.433075l0 0c-10.732605 0 -19.433075 -8.7005005 -19.433075 -19.433075z" fill-rule="evenodd"/><path stroke="#674ea7" stroke-width="3.0" stroke-linejoin="round" stroke-linecap="butt" d="m267.41864 429.5118l0 0c0 -10.732574 8.70047 -19.433075 19.433075 -19.433075l0 0c5.153961 0 10.096832 2.0474243 13.741241 5.6918335c3.6444092 3.6443787 5.6918335 8.58728 5.6918335 13.741241l0 0c0 10.732574 -8.7005005 19.433075 -19.433075 19.433075l0 0c-10.732605 0 -19.433075 -8.7005005 -19.433075 -19.433075z" fill-rule="evenodd"/><path fill="#ffffff" d="m342.07742 344.12073l0 0c0 -10.732574 8.7005005 -19.433075 19.433075 -19.433075l0 0c5.153961 0 10.096863 2.0474243 13.741272 5.6918335c3.6443787 3.6444092 5.691803 8.58728 5.691803 13.741241l0 0c0 10.732605 -8.7005005 19.433075 -19.433075 19.433075l0 0c-10.732574 0 -19.433075 -8.70047 -19.433075 -19.433075z" fill-rule="evenodd"/><path stroke="#674ea7" stroke-width="3.0" stroke-linejoin="round" stroke-linecap="butt" d="m342.07742 344.12073l0 0c0 -10.732574 8.7005005 -19.433075 19.433075 -19.433075l0 0c5.153961 0 10.096863 2.0474243 13.741272 5.6918335c3.6443787 3.6444092 5.691803 8.58728 5.691803 13.741241l0 0c0 10.732605 -8.7005005 19.433075 -19.433075 19.433075l0 0c-10.732574 0 -19.433075 -8.70047 -19.433075 -19.433075z" fill-rule="evenodd"/><path fill="#ffffff" d="m329.8071 403.43307l0 0c0 -10.732605 8.70047 -19.433075 19.433044 -19.433075l0 0c5.1539917 0 10.096863 2.0473938 13.741272 5.691803c3.6444092 3.6444092 5.691803 8.587311 5.691803 13.741272l0 0c0 10.732574 -8.70047 19.433075 -19.433075 19.433075l0 0c-10.732574 0 -19.433044 -8.7005005 -19.433044 -19.433075z" fill-rule="evenodd"/><path stroke="#674ea7" stroke-width="3.0" stroke-linejoin="round" stroke-linecap="butt" d="m329.8071 403.43307l0 0c0 -10.732605 8.70047 -19.433075 19.433044 -19.433075l0 0c5.1539917 0 10.096863 2.0473938 13.741272 5.691803c3.6444092 3.6444092 5.691803 8.587311 5.691803 13.741272l0 0c0 10.732574 -8.70047 19.433075 -19.433075 19.433075l0 0c-10.732574 0 -19.433044 -8.7005005 -19.433044 -19.433075z" fill-rule="evenodd"/><path fill="#000000" fill-opacity="0.0" d="m480.6404 26.587927l519.4961 0l0 44.094482l-519.4961 0z" fill-rule="evenodd"/><path fill="#000000" d="m498.4998 47.64855l-5.578125 0l0 5.859375l-1.734375 0l0 -13.265625l8.203125 0l0 1.4375l-6.46875 0l0 4.546875l5.578125 0l0 1.421875zm8.502075 5.859375q-0.140625 -0.296875 -0.234375 -1.03125q-1.171875 1.21875 -2.8125 1.21875q-1.453125 0 -2.390625 -0.828125q-0.921875 -0.828125 -0.921875 -2.09375q0 -1.53125 1.15625 -2.375q1.171875 -0.859375 3.296875 -0.859375l1.640625 0l0 -0.78125q0 -0.890625 -0.53125 -1.40625q-0.515625 -0.53125 -1.546875 -0.53125q-0.90625 0 -1.515625 0.46875q-0.609375 0.453125 -0.609375 1.09375l-1.703125 0q0 -0.734375 0.515625 -1.421875q0.53125 -0.6875 1.421875 -1.078125q0.90625 -0.40625 1.984375 -0.40625q1.703125 0 2.671875 0.859375q0.96875 0.84375 1.0 2.328125l0 4.53125q0 1.359375 0.34375 2.171875l0 0.140625l-1.765625 0zm-2.796875 -1.28125q0.796875 0 1.5 -0.40625q0.71875 -0.421875 1.03125 -1.078125l0 -2.015625l-1.3125 0q-3.109375 0 -3.109375 1.8125q0 0.796875 0.53125 1.25q0.53125 0.4375 1.359375 0.4375zm9.980011 -1.0l2.4375 -7.578125l1.71875 0l-3.53125 9.859375l-1.28125 0l-3.578125 -9.859375l1.71875 0l2.515625 7.578125zm5.1967773 -2.734375q0 -1.453125 0.5625 -2.609375q0.578125 -1.15625 1.59375 -1.78125q1.015625 -0.625 2.3125 -0.625q2.015625 0 3.25 1.390625q1.25 1.390625 1.25 3.703125l0 0.125q0 1.4375 -0.546875 2.578125q-0.546875 1.140625 -1.578125 1.78125q-1.015625 0.640625 -2.359375 0.640625q-2.0 0 -3.25 -1.390625q-1.234375 -1.40625 -1.234375 -3.703125l0 -0.109375zm1.6875 0.203125q0 1.640625 0.765625 2.640625q0.765625 0.984375 2.03125 0.984375q1.296875 0 2.046875 -1.0q0.75 -1.015625 0.75 -2.828125q0 -1.625 -0.765625 -2.625q-0.765625 -1.015625 -2.046875 -1.015625q-1.25 0 -2.015625 1.0q-0.765625 0.984375 -0.765625 2.84375zm14.171143 -3.53125q-0.390625 -0.0625 -0.84375 -0.0625q-1.65625 0 -2.25 1.40625l0 7.0l-1.671875 0l0 -9.859375l1.640625 0l0.015625 1.140625q0.828125 -1.3125 2.359375 -1.3125q0.484375 0 0.75 0.125l0 1.5625zm10.3376465 2.4375q-2.25 -0.65625 -3.28125 -1.59375q-1.03125 -0.9375 -1.03125 -2.328125q0 -1.5625 1.25 -2.59375q1.265625 -1.03125 3.265625 -1.03125q1.359375 0 2.4375 0.53125q1.078125 0.53125 1.65625 1.46875q0.59375 0.921875 0.59375 2.03125l-1.765625 0q0 -1.203125 -0.765625 -1.890625q-0.765625 -0.6875 -2.15625 -0.6875q-1.296875 0 -2.015625 0.5625q-0.71875 0.5625 -0.71875 1.578125q0 0.8125 0.6875 1.375q0.6875 0.5625 2.328125 1.03125q1.65625 0.453125 2.59375 1.015625q0.9375 0.5625 1.375 1.3125q0.453125 0.75 0.453125 1.75q0 1.609375 -1.25 2.59375q-1.25 0.96875 -3.359375 0.96875q-1.375 0 -2.5625 -0.515625q-1.171875 -0.53125 -1.8125 -1.4375q-0.640625 -0.921875 -0.640625 -2.078125l1.75 0q0 1.203125 0.890625 1.90625q0.890625 0.6875 2.375 0.6875q1.375 0 2.109375 -0.5625q0.75 -0.5625 0.75 -1.53125q0 -0.984375 -0.6875 -1.515625q-0.6875 -0.53125 -2.46875 -1.046875zm6.443054 0.890625q0 -1.453125 0.5625 -2.609375q0.578125 -1.15625 1.59375 -1.78125q1.015625 -0.625 2.3125 -0.625q2.015625 0 3.25 1.390625q1.25 1.390625 1.25 3.703125l0 0.125q0 1.4375 -0.546875 2.578125q-0.546875 1.140625 -1.578125 1.78125q-1.015625 0.640625 -2.359375 0.640625q-2.0 0 -3.25 -1.390625q-1.234375 -1.40625 -1.234375 -3.703125l0 -0.109375zm1.6875 0.203125q0 1.640625 0.765625 2.640625q0.765625 0.984375 2.03125 0.984375q1.296875 0 2.046875 -1.0q0.75 -1.015625 0.75 -2.828125q0 -1.625 -0.765625 -2.625q-0.765625 -1.015625 -2.046875 -1.015625q-1.25 0 -2.015625 1.0q-0.765625 0.984375 -0.765625 2.84375zm11.233643 4.8125l-1.6875 0l0 -14.0l1.6875 0l0 14.0zm8.777405 -0.96875q-0.984375 1.15625 -2.890625 1.15625q-1.578125 0 -2.40625 -0.921875q-0.8125 -0.921875 -0.828125 -2.703125l0 -6.421875l1.6875 0l0 6.375q0 2.234375 1.828125 2.234375q1.921875 0 2.5625 -1.4375l0 -7.171875l1.6875 0l0 9.859375l-1.609375 0l-0.03125 -0.96875zm6.487732 -11.28125l0 2.390625l1.84375 0l0 1.3125l-1.84375 0l0 6.109375q0 0.59375 0.234375 0.890625q0.25 0.296875 0.84375 0.296875q0.296875 0 0.8125 -0.109375l0 1.359375q-0.671875 0.1875 -1.296875 0.1875q-1.125 0 -1.703125 -0.6875q-0.578125 -0.6875 -0.578125 -1.9375l0 -6.109375l-1.796875 0l0 -1.3125l1.796875 0l0 -2.390625l1.6875 0zm5.6411133 12.25l-1.6875 0l0 -9.859375l1.6875 0l0 9.859375zm-1.828125 -12.46875q0 -0.40625 0.25 -0.6875q0.25 -0.296875 0.734375 -0.296875q0.5 0 0.75 0.296875q0.265625 0.28125 0.265625 0.6875q0 0.40625 -0.265625 0.6875q-0.25 0.265625 -0.75 0.265625q-0.484375 0 -0.734375 -0.265625q-0.25 -0.28125 -0.25 -0.6875zm4.074341 7.453125q0 -1.453125 0.5625 -2.609375q0.578125 -1.15625 1.59375 -1.78125q1.015625 -0.625 2.3125 -0.625q2.015625 0 3.25 1.390625q1.25 1.390625 1.25 3.703125l0 0.125q0 1.4375 -0.546875 2.578125q-0.546875 1.140625 -1.578125 1.78125q-1.015625 0.640625 -2.359375 0.640625q-2.0 0 -3.25 -1.390625q-1.234375 -1.40625 -1.234375 -3.703125l0 -0.109375zm1.6875 0.203125q0 1.640625 0.765625 2.640625q0.765625 0.984375 2.03125 0.984375q1.296875 0 2.046875 -1.0q0.75 -1.015625 0.75 -2.828125q0 -1.625 -0.765625 -2.625q-0.765625 -1.015625 -2.046875 -1.015625q-1.25 0 -2.015625 1.0q-0.765625 0.984375 -0.765625 2.84375zm10.999268 -5.046875l0.046875 1.234375q1.125 -1.40625 2.953125 -1.40625q3.125 0 3.15625 3.515625l0 6.515625l-1.6875 0l0 -6.515625q-0.015625 -1.078125 -0.5 -1.578125q-0.46875 -0.515625 -1.484375 -0.515625q-0.8125 0 -1.4375 0.4375q-0.609375 0.4375 -0.96875 1.15625l0 7.015625l-1.671875 0l0 -9.859375l1.59375 0zm23.771606 9.859375l-1.765625 0l-6.671875 -10.21875l0 10.21875l-1.75 0l0 -13.265625l1.75 0l6.703125 10.265625l0 -10.265625l1.734375 0l0 13.265625zm6.9248657 0.1875q-2.0 0 -3.265625 -1.3125q-1.25 -1.328125 -1.25 -3.53125l0 -0.3125q0 -1.46875 0.5625 -2.609375q0.5625 -1.15625 1.5625 -1.796875q1.015625 -0.65625 2.1875 -0.65625q1.921875 0 2.984375 1.265625q1.0625 1.265625 1.0625 3.625l0 0.6875l-6.671875 0q0.03125 1.46875 0.84375 2.375q0.828125 0.890625 2.078125 0.890625q0.890625 0 1.515625 -0.359375q0.625 -0.375 1.078125 -0.96875l1.03125 0.796875q-1.234375 1.90625 -3.71875 1.90625zm-0.203125 -8.84375q-1.015625 0 -1.71875 0.75q-0.6875 0.734375 -0.84375 2.078125l4.9375 0l0 -0.125q-0.078125 -1.28125 -0.703125 -1.984375q-0.609375 -0.71875 -1.671875 -0.71875zm8.290039 -3.59375l0 2.390625l1.84375 0l0 1.3125l-1.84375 0l0 6.109375q0 0.59375 0.234375 0.890625q0.25 0.296875 0.84375 0.296875q0.296875 0 0.8125 -0.109375l0 1.359375q-0.671875 0.1875 -1.296875 0.1875q-1.125 0 -1.703125 -0.6875q-0.578125 -0.6875 -0.578125 -1.9375l0 -6.109375l-1.796875 0l0 -1.3125l1.796875 0l0 -2.390625l1.6875 0zm12.531738 9.921875l1.890625 -7.53125l1.6875 0l-2.859375 9.859375l-1.375 0l-2.390625 -7.46875l-2.328125 7.46875l-1.375 0l-2.859375 -9.859375l1.671875 0l1.953125 7.375l2.28125 -7.375l1.359375 0l2.34375 7.53125zm4.8476562 -2.6875q0 -1.453125 0.5625 -2.609375q0.578125 -1.15625 1.59375 -1.78125q1.015625 -0.625 2.3125 -0.625q2.015625 0 3.25 1.390625q1.25 1.390625 1.25 3.703125l0 0.125q0 1.4375 -0.546875 2.578125q-0.546875 1.140625 -1.578125 1.78125q-1.015625 0.640625 -2.359375 0.640625q-2.0 0 -3.25 -1.390625q-1.234375 -1.40625 -1.234375 -3.703125l0 -0.109375zm1.6875 0.203125q0 1.640625 0.765625 2.640625q0.765625 0.984375 2.03125 0.984375q1.296875 0 2.046875 -1.0q0.75 -1.015625 0.75 -2.828125q0 -1.625 -0.765625 -2.625q-0.765625 -1.015625 -2.046875 -1.015625q-1.25 0 -2.015625 1.0q-0.765625 0.984375 -0.765625 2.84375zm14.171143 -3.53125q-0.390625 -0.0625 -0.84375 -0.0625q-1.65625 0 -2.25 1.40625l0 7.0l-1.671875 0l0 -9.859375l1.640625 0l0.015625 1.140625q0.828125 -1.3125 2.359375 -1.3125q0.484375 0 0.75 0.125l0 1.5625zm4.297241 3.78125l-1.0625 1.09375l0 3.46875l-1.6875 0l0 -14.0l1.6875 0l0 8.46875l0.90625 -1.078125l3.0625 -3.25l2.046875 0l-3.828125 4.125l4.28125 5.734375l-1.984375 0l-3.421875 -4.5625z" fill-rule="nonzero"/><path fill="#000000" fill-opacity="0.0" d="m480.6404 75.938324l519.4961 0l0 44.094482l-519.4961 0z" fill-rule="evenodd"/><path fill="#000000" d="m500.9373 98.6552q-0.25 2.09375 -1.5625 3.25q-1.296875 1.140625 -3.46875 1.140625q-2.34375 0 -3.765625 -1.6875q-1.421875 -1.6875 -1.421875 -4.515625l0 -1.265625q0 -1.859375 0.65625 -3.25q0.671875 -1.40625 1.875 -2.15625q1.21875 -0.765625 2.8125 -0.765625q2.109375 0 3.390625 1.1875q1.28125 1.171875 1.484375 3.265625l-1.765625 0q-0.21875 -1.578125 -0.984375 -2.28125q-0.765625 -0.71875 -2.125 -0.71875q-1.671875 0 -2.625 1.234375q-0.953125 1.234375 -0.953125 3.53125l0 1.28125q0 2.15625 0.890625 3.4375q0.90625 1.265625 2.53125 1.265625q1.453125 0 2.234375 -0.65625q0.78125 -0.65625 1.03125 -2.296875l1.765625 0zm1.6742249 -0.8125q0 -1.453125 0.5625 -2.609375q0.578125 -1.15625 1.59375 -1.78125q1.015625 -0.625 2.3125 -0.625q2.015625 0 3.25 1.390625q1.25 1.390625 1.25 3.703125l0 0.125q0 1.4375 -0.546875 2.578125q-0.546875 1.140625 -1.578125 1.78125q-1.015625 0.640625 -2.359375 0.640625q-2.0 0 -3.25 -1.390625q-1.234375 -1.40625 -1.234375 -3.703125l0 -0.109375zm1.6875 0.203125q0 1.640625 0.765625 2.640625q0.765625 0.984375 2.03125 0.984375q1.296875 0 2.046875 -1.0q0.75 -1.015625 0.75 -2.828125q0 -1.625 -0.765625 -2.625q-0.765625 -1.015625 -2.046875 -1.015625q-1.25 0 -2.015625 1.0q-0.765625 0.984375 -0.765625 2.84375zm15.483643 3.84375q-0.984375 1.15625 -2.890625 1.15625q-1.578125 0 -2.40625 -0.921875q-0.8125 -0.921875 -0.828125 -2.703125l0 -6.421875l1.6875 0l0 6.375q0 2.234375 1.828125 2.234375q1.921875 0 2.5625 -1.4375l0 -7.171875l1.6875 0l0 9.859375l-1.609375 0l-0.03125 -0.96875zm5.800232 -8.890625l0.046875 1.234375q1.125 -1.40625 2.953125 -1.40625q3.125 0 3.15625 3.515625l0 6.515625l-1.6875 0l0 -6.515625q-0.015625 -1.078125 -0.5 -1.578125q-0.46875 -0.515625 -1.484375 -0.515625q-0.8125 0 -1.4375 0.4375q-0.609375 0.4375 -0.96875 1.15625l0 7.015625l-1.671875 0l0 -9.859375l1.59375 0zm12.653137 8.671875q0.890625 0 1.5625 -0.546875q0.6875 -0.546875 0.75 -1.375l1.59375 0q-0.046875 0.84375 -0.578125 1.609375q-0.53125 0.765625 -1.4375 1.234375q-0.890625 0.453125 -1.890625 0.453125q-2.015625 0 -3.203125 -1.34375q-1.1875 -1.34375 -1.1875 -3.6875l0 -0.28125q0 -1.4375 0.515625 -2.546875q0.53125 -1.125 1.515625 -1.734375q1.0 -0.625 2.34375 -0.625q1.65625 0 2.75 1.0q1.109375 0.984375 1.171875 2.5625l-1.59375 0q-0.0625 -0.953125 -0.71875 -1.5625q-0.65625 -0.625 -1.609375 -0.625q-1.28125 0 -2.0 0.921875q-0.703125 0.921875 -0.703125 2.671875l0 0.328125q0 1.703125 0.703125 2.625q0.703125 0.921875 2.015625 0.921875zm7.640381 1.1875l-1.6875 0l0 -9.859375l1.6875 0l0 9.859375zm-1.828125 -12.46875q0 -0.40625 0.25 -0.6875q0.25 -0.296875 0.734375 -0.296875q0.5 0 0.75 0.296875q0.265625 0.28125 0.265625 0.6875q0 0.40625 -0.265625 0.6875q-0.25 0.265625 -0.75 0.265625q-0.484375 0 -0.734375 -0.265625q-0.25 -0.28125 -0.25 -0.6875zm6.35553 12.46875l-1.6875 0l0 -14.0l1.6875 0l0 14.0z" fill-rule="nonzero"/><path fill="#000000" fill-opacity="0.0" d="m480.6404 157.9672l519.4961 0l0 44.094482l-519.4961 0z" fill-rule="evenodd"/><path fill="#000000" d="m500.9373 180.68407q-0.25 2.09375 -1.5625 3.25q-1.296875 1.140625 -3.46875 1.140625q-2.34375 0 -3.765625 -1.6875q-1.421875 -1.6875 -1.421875 -4.515625l0 -1.265625q0 -1.859375 0.65625 -3.25q0.671875 -1.40625 1.875 -2.15625q1.21875 -0.765625 2.8125 -0.765625q2.109375 0 3.390625 1.1875q1.28125 1.171875 1.484375 3.265625l-1.765625 0q-0.21875 -1.578125 -0.984375 -2.28125q-0.765625 -0.71875 -2.125 -0.71875q-1.671875 0 -2.625 1.234375q-0.953125 1.234375 -0.953125 3.53125l0 1.28125q0 2.15625 0.890625 3.4375q0.90625 1.265625 2.53125 1.265625q1.453125 0 2.234375 -0.65625q0.78125 -0.65625 1.03125 -2.296875l1.765625 0zm3.9554749 4.203125l-1.6875 0l0 -9.859375l1.6875 0l0 9.859375zm-1.828125 -12.46875q0 -0.40625 0.25 -0.6875q0.25 -0.296875 0.734375 -0.296875q0.5 0 0.75 0.296875q0.265625 0.28125 0.265625 0.6875q0 0.40625 -0.265625 0.6875q-0.25 0.265625 -0.75 0.265625q-0.484375 0 -0.734375 -0.265625q-0.25 -0.28125 -0.25 -0.6875zm9.29303 4.125q-0.390625 -0.0625 -0.84375 -0.0625q-1.65625 0 -2.25 1.40625l0 7.0l-1.671875 0l0 -9.859375l1.640625 0l0.015625 1.140625q0.828125 -1.3125 2.359375 -1.3125q0.484375 0 0.75 0.125l0 1.5625zm5.3272095 7.15625q0.890625 0 1.5625 -0.546875q0.6875 -0.546875 0.75 -1.375l1.59375 0q-0.046875 0.84375 -0.578125 1.609375q-0.53125 0.765625 -1.4375 1.234375q-0.890625 0.453125 -1.890625 0.453125q-2.015625 0 -3.203125 -1.34375q-1.1875 -1.34375 -1.1875 -3.6875l0 -0.28125q0 -1.4375 0.515625 -2.546875q0.53125 -1.125 1.515625 -1.734375q1.0 -0.625 2.34375 -0.625q1.65625 0 2.75 1.0q1.109375 0.984375 1.171875 2.5625l-1.59375 0q-0.0625 -0.953125 -0.71875 -1.5625q-0.65625 -0.625 -1.609375 -0.625q-1.28125 0 -2.0 0.921875q-0.703125 0.921875 -0.703125 2.671875l0 0.328125q0 1.703125 0.703125 2.625q0.703125 0.921875 2.015625 0.921875zm7.640381 1.1875l-1.6875 0l0 -14.0l1.6875 0l0 14.0zm6.777405 0.1875q-2.0 0 -3.265625 -1.3125q-1.25 -1.328125 -1.25 -3.53125l0 -0.3125q0 -1.46875 0.5625 -2.609375q0.5625 -1.15625 1.5625 -1.796875q1.015625 -0.65625 2.1875 -0.65625q1.921875 0 2.984375 1.265625q1.0625 1.265625 1.0625 3.625l0 0.6875l-6.671875 0q0.03125 1.46875 0.84375 2.375q0.828125 0.890625 2.078125 0.890625q0.890625 0 1.515625 -0.359375q0.625 -0.375 1.078125 -0.96875l1.03125 0.796875q-1.234375 1.90625 -3.71875 1.90625zm-0.203125 -8.84375q-1.015625 0 -1.71875 0.75q-0.6875 0.734375 -0.84375 2.078125l4.9375 0l0 -0.125q-0.078125 -1.28125 -0.703125 -1.984375q-0.609375 -0.71875 -1.671875 -0.71875zm11.743225 6.046875q0 -0.6875 -0.515625 -1.0625q-0.515625 -0.375 -1.796875 -0.640625q-1.28125 -0.28125 -2.03125 -0.65625q-0.75 -0.390625 -1.109375 -0.921875q-0.359375 -0.53125 -0.359375 -1.265625q0 -1.203125 1.015625 -2.03125q1.03125 -0.84375 2.625 -0.84375q1.671875 0 2.71875 0.859375q1.046875 0.859375 1.046875 2.21875l-1.6875 0q0 -0.703125 -0.59375 -1.203125q-0.59375 -0.5 -1.484375 -0.5q-0.921875 0 -1.4375 0.40625q-0.515625 0.390625 -0.515625 1.046875q0 0.609375 0.484375 0.921875q0.484375 0.3125 1.734375 0.59375q1.265625 0.28125 2.046875 0.671875q0.78125 0.390625 1.15625 0.9375q0.390625 0.546875 0.390625 1.34375q0 1.328125 -1.0625 2.125q-1.046875 0.796875 -2.734375 0.796875q-1.1875 0 -2.109375 -0.421875q-0.90625 -0.421875 -1.421875 -1.171875q-0.515625 -0.75 -0.515625 -1.625l1.6875 0q0.046875 0.84375 0.671875 1.34375q0.640625 0.5 1.6875 0.5q0.953125 0 1.53125 -0.390625q0.578125 -0.390625 0.578125 -1.03125z" fill-rule="nonzero"/><path fill="#000000" fill-opacity="0.0" d="m480.6404 311.3937l519.4961 0l0 44.094482l-519.4961 0z" fill-rule="evenodd"/><path fill="#000000" d="m493.4373 325.04807l4.34375 10.828125l4.328125 -10.828125l2.265625 0l0 13.265625l-1.75 0l0 -5.171875l0.171875 -5.5625l-4.359375 10.734375l-1.34375 0l-4.34375 -10.71875l0.171875 5.546875l0 5.171875l-1.734375 0l0 -13.265625l2.25 0zm17.85028 13.453125q-2.0 0 -3.265625 -1.3125q-1.25 -1.328125 -1.25 -3.53125l0 -0.3125q0 -1.46875 0.5625 -2.609375q0.5625 -1.15625 1.5625 -1.796875q1.015625 -0.65625 2.1875 -0.65625q1.9219055 0 2.9844055 1.265625q1.0625 1.265625 1.0625 3.625l0 0.6875l-6.6719055 0q0.03125 1.46875 0.84375 2.375q0.828125 0.890625 2.078125 0.890625q0.8906555 0 1.5156555 -0.359375q0.625 -0.375 1.078125 -0.96875l1.03125 0.796875q-1.234375 1.90625 -3.7187805 1.90625zm-0.203125 -8.84375q-1.015625 0 -1.71875 0.75q-0.6875 0.734375 -0.84375 2.078125l4.9375305 0l0 -0.125q-0.078125 -1.28125 -0.703125 -1.984375q-0.609375 -0.71875 -1.6719055 -0.71875zm7.5869446 -1.203125l0.046875 1.09375q1.078125 -1.265625 2.921875 -1.265625q2.0625 0 2.8125 1.578125q0.5 -0.71875 1.28125 -1.140625q0.796875 -0.4375 1.859375 -0.4375q3.25 0 3.296875 3.421875l0 6.609375l-1.671875 0l0 -6.5q0 -1.0625 -0.484375 -1.578125q-0.484375 -0.53125 -1.625 -0.53125q-0.9375 0 -1.5625 0.5625q-0.609375 0.5625 -0.71875 1.5l0 6.546875l-1.6875 0l0 -6.453125q0 -2.15625 -2.109375 -2.15625q-1.65625 0 -2.265625 1.40625l0 7.203125l-1.6875 0l0 -9.859375l1.59375 0zm23.117188 5.046875q0 2.25 -1.046875 3.625q-1.03125 1.375 -2.78125 1.375q-1.875 0 -2.890625 -1.328125l-0.078125 1.140625l-1.546875 0l0 -14.0l1.671875 0l0 5.234375q1.03125 -1.265625 2.8125 -1.265625q1.796875 0 2.828125 1.359375q1.03125 1.34375 1.03125 3.703125l0 0.15625zm-1.6875 -0.203125q0 -1.71875 -0.671875 -2.65625q-0.65625 -0.9375 -1.90625 -0.9375q-1.671875 0 -2.40625 1.546875l0 4.265625q0.78125 1.546875 2.421875 1.546875q1.21875 0 1.890625 -0.9375q0.671875 -0.9375 0.671875 -2.828125zm7.888672 5.203125q-2.0 0 -3.265625 -1.3125q-1.25 -1.328125 -1.25 -3.53125l0 -0.3125q0 -1.46875 0.5625 -2.609375q0.5625 -1.15625 1.5625 -1.796875q1.015625 -0.65625 2.1875 -0.65625q1.921875 0 2.984375 1.265625q1.0625 1.265625 1.0625 3.625l0 0.6875l-6.671875 0q0.03125 1.46875 0.84375 2.375q0.828125 0.890625 2.078125 0.890625q0.890625 0 1.515625 -0.359375q0.625 -0.375 1.078125 -0.96875l1.03125 0.796875q-1.234375 1.90625 -3.71875 1.90625zm-0.203125 -8.84375q-1.015625 0 -1.71875 0.75q-0.6875 0.734375 -0.84375 2.078125l4.9375 0l0 -0.125q-0.078125 -1.28125 -0.703125 -1.984375q-0.609375 -0.71875 -1.671875 -0.71875zm10.774414 0.3125q-0.390625 -0.0625 -0.84375 -0.0625q-1.65625 0 -2.25 1.40625l0 7.0l-1.671875 0l0 -9.859375l1.640625 0l0.015625 1.140625q0.828125 -1.3125 2.359375 -1.3125q0.484375 0 0.75 0.125l0 1.5625zm7.281616 5.734375q0 -0.6875 -0.515625 -1.0625q-0.515625 -0.375 -1.796875 -0.640625q-1.28125 -0.28125 -2.03125 -0.65625q-0.75 -0.390625 -1.109375 -0.921875q-0.359375 -0.53125 -0.359375 -1.265625q0 -1.203125 1.015625 -2.03125q1.03125 -0.84375 2.625 -0.84375q1.671875 0 2.71875 0.859375q1.046875 0.859375 1.046875 2.21875l-1.6875 0q0 -0.703125 -0.59375 -1.203125q-0.59375 -0.5 -1.484375 -0.5q-0.921875 0 -1.4375 0.40625q-0.515625 0.390625 -0.515625 1.046875q0 0.609375 0.484375 0.921875q0.484375 0.3125 1.734375 0.59375q1.265625 0.28125 2.046875 0.671875q0.78125 0.390625 1.15625 0.9375q0.390625 0.546875 0.390625 1.34375q0 1.328125 -1.0625 2.125q-1.046875 0.796875 -2.734375 0.796875q-1.1875 0 -2.109375 -0.421875q-0.90625 -0.421875 -1.421875 -1.171875q-0.515625 -0.75 -0.515625 -1.625l1.6875 0q0.046875 0.84375 0.671875 1.34375q0.640625 0.5 1.6875 0.5q0.953125 0 1.53125 -0.390625q0.578125 -0.390625 0.578125 -1.03125z" fill-rule="nonzero"/><path fill="#000000" fill-opacity="0.0" d="m480.6404 48.63517l-99.212585 0" fill-rule="evenodd"/><path stroke="#674ea7" stroke-width="2.0" stroke-linejoin="round" stroke-linecap="butt" d="m480.6404 48.63517l-87.212585 0" fill-rule="evenodd"/><path stroke="#674ea7" stroke-width="2.0" stroke-linecap="butt" d="m393.42783 45.331707l-9.076202 3.303463l9.076202 3.3034668z" fill-rule="evenodd"/><path fill="#000000" fill-opacity="0.0" d="m480.6404 97.985565l-147.27557 0" fill-rule="evenodd"/><path stroke="#3c78d8" stroke-width="2.0" stroke-linejoin="round" stroke-linecap="butt" d="m480.6404 97.985565l-135.27557 0" fill-rule="evenodd"/><path stroke="#3c78d8" stroke-width="2.0" stroke-linecap="butt" d="m345.36484 94.6821l-9.076202 3.3034668l9.076202 3.3034668z" fill-rule="evenodd"/><path fill="#000000" fill-opacity="0.0" d="m480.6509 181.50919l-45.039368 1.0393677" fill-rule="evenodd"/><path stroke="#a64d79" stroke-width="2.0" stroke-linejoin="round" stroke-linecap="butt" d="m480.6509 181.50919l-33.042572 0.76252747" fill-rule="evenodd"/><path stroke="#a64d79" stroke-width="2.0" stroke-linecap="butt" d="m447.53214 178.96912l-8.997559 3.5119781l9.149994 3.0932007z" fill-rule="evenodd"/><path fill="#000000" fill-opacity="0.0" d="m480.6404 333.43964l-78.74014 0" fill-rule="evenodd"/><path stroke="#674ea7" stroke-width="2.0" stroke-linejoin="round" stroke-linecap="butt" d="m480.6404 333.43964l-66.74014 0" fill-rule="evenodd"/><path stroke="#674ea7" stroke-width="2.0" stroke-linecap="butt" d="m413.90027 330.13617l-9.076202 3.3034668l9.076202 3.3034668z" fill-rule="evenodd"/></g></svg>