<svg xmlns="http://www.w3.org/2000/svg" viewBox="0 0 145.24 161.41"><defs><style>.cls-1{fill:#d19a2a;fill-rule:evenodd;}</style></defs><title>sqglz</title><g id="Layer_2" data-name="Layer 2"><g id="Layer_2-2" data-name="Layer 2"><path class="cls-1" d="M102.48,27.9C101.41,31.59,96.36,32.55,92,31c-4.69-1.66-9.15-6.51-12.48-8.64-12.7,2.1-25.19-1-36.58-2.13-.91,3.89,0,6.31,3.22,8.85,2.2,1.74,12.15,6.32,14.4,7.08,6.17,2.07,19.31,5.59,26.52,7.08,11.74,2.42,26.07,6,29.73,18,5.67,1.59,24,1.06,26.18-11.25,1.54-8.62-3.56-12.29-5.51-13.63C142.4,38.8,146,45,145.11,51.68c-1.46,11.33-15.17,14.75-27.67,12.5,2.41,17.17-22.83,30.08-41,26.24-1.08,6.24-10.25,27.26-9.24,41.16a32.75,32.75,0,0,0,6.24,16.56C76,151.9,81,154.76,81,161.22c-3.23.77-5.87-1-7.56-2.4-5.71-4.83-7.69-15.1-7.75-25-.09-14.22,8.78-38.06,8-48.29C73,76.76,69.78,71,66,67.26c-3.31-3.34-12.36-5.2-15.83-1.5-3.83,4.08-2.83,9.83,3.42,16.75,2.74,3,7.58,4.95,8.58,7.92.39,1.16-.08.57-.53-.12-1.72-2.63-6.14-3.37-8-3.81C42.8,84,32.19,80.7,26.19,72.18c-7.53-10.7-.5-20.5,8.25-24.25C42.24,44.58,54,44,67.2,46.87,76,48.79,99,57.41,106.61,59.47c-2.11-5.94-8.87-10.14-15.08-13-6.43-2.92-28.25-7.58-37.16-9.37-9.21-1.85-16-4-19.44-8.28-1.77-2.18-1.62-6.41-.35-9-15-2-32.75,6-34.57,26.85,0-21.31,19.32-31.69,36.82-30.1,3.44-3.92,10.13-6.82,15.26-7.34a35.8,35.8,0,0,1,16,2c3.16,1.16,11.05,6.9,11.64,7,1.53.17,4-1.68,5.28-2.76C88.25,12.68,90,5.17,89,.3,89-.08,89.15,0,89.4.06c2.25.71,5.49,4.79,5.52,8.64,0,2.58-1.76,4.82-2.76,7.08S89.53,20.85,90,23.34c.35,1.87,5,4.11,6.84,4.8S101,29.13,102.48,27.9Zm-30-11.64c-3.86-3.09-10-6.6-16.2-6.24-5.56.32-10.37,2.34-12.42,7.1C54.17,18.19,65,20.64,76.2,19.26Zm15.24,3.48c-1.14.74-2.66,1.1-3.84,1.8a60.56,60.56,0,0,0,5.52,3.72A39.37,39.37,0,0,1,87.72,19.74ZM44.36,78.51c-2.17-2.72-5.81-9.79-2.09-15.47,4.93-7.53,18.51-7.2,26.26-.61,5.71,4.85,8.42,11.75,8.92,21.63.63,2.88,4.5,4.55,5.63,4.75,17.63,3.13,26.47-17.38,24.63-26.63C103.23,60.63,76.74,51,70,49.34c-8.79-2.14-20.08-1.42-26.25,1.83C37,54.75,29.69,63.43,35.69,74.68,38.83,80.55,47.38,83.09,54,85.08,49.88,83.18,46.11,80.7,44.36,78.51Z"/></g></g></svg>